<svg width="139" height="131" viewBox="0 0 139 131" fill="none" xmlns="http://www.w3.org/2000/svg">
<g clip-path="url(#clip0)">
<path d="M111.4 101.445C110.268 101.445 109.161 101.108 108.22 100.478C107.279 99.8482 106.546 98.9525 106.112 97.9047C105.679 96.8568 105.566 95.7038 105.787 94.5914C106.008 93.479 106.553 92.4572 107.353 91.6552C108.153 90.8532 109.173 90.307 110.283 90.0858C111.393 89.8645 112.544 89.9781 113.59 90.4121C114.636 90.8461 115.529 91.5812 116.158 92.5242C116.787 93.4673 117.123 94.576 117.123 95.7102C117.121 97.2305 116.518 98.6881 115.445 99.7632C114.372 100.838 112.917 101.443 111.4 101.445Z" fill="#CCCCCC"/>
<path d="M114.041 95.4898H111.62V92.7328C111.62 92.6743 111.597 92.6182 111.555 92.5768C111.514 92.5354 111.458 92.5122 111.4 92.5122C111.341 92.5122 111.285 92.5354 111.244 92.5768C111.203 92.6182 111.179 92.6743 111.179 92.7328V95.4898H108.758C108.7 95.4898 108.644 95.513 108.603 95.5544C108.561 95.5957 108.538 95.6518 108.538 95.7103C108.538 95.7688 108.561 95.8249 108.603 95.8663C108.644 95.9077 108.7 95.9309 108.758 95.9309H111.179V98.6879C111.179 98.7464 111.203 98.8025 111.244 98.8439C111.285 98.8852 111.341 98.9085 111.4 98.9085C111.458 98.9085 111.514 98.8852 111.555 98.8439C111.597 98.8025 111.62 98.7464 111.62 98.6879V95.9309H114.041C114.099 95.9309 114.155 95.9077 114.197 95.8663C114.238 95.8249 114.261 95.7688 114.261 95.7103C114.261 95.6518 114.238 95.5957 114.197 95.5544C114.155 95.513 114.099 95.4898 114.041 95.4898Z" fill="white"/>
<path d="M133.439 128.318L130.923 128.317L129.727 118.592L133.44 118.592L133.439 128.318Z" fill="#FFB8B8"/>
<path d="M129.125 127.597H133.978V130.659H126.069C126.069 130.256 126.148 129.858 126.302 129.487C126.455 129.115 126.681 128.778 126.964 128.493C127.248 128.209 127.585 127.984 127.956 127.83C128.326 127.676 128.724 127.597 129.125 127.597Z" fill="#2F2E41"/>
<path d="M123.424 128.318L120.908 128.317L119.711 118.592L123.425 118.592L123.424 128.318Z" fill="#FFB8B8"/>
<path d="M119.11 127.597H123.963V130.659H116.055C116.055 130.256 116.134 129.858 116.287 129.487C116.441 129.115 116.666 128.778 116.95 128.493C117.233 128.209 117.57 127.984 117.941 127.83C118.312 127.676 118.709 127.597 119.11 127.597Z" fill="#2F2E41"/>
<path d="M135.378 94.6929C135.175 94.4687 135.024 94.2028 134.935 93.9139C134.846 93.6249 134.822 93.32 134.863 93.0205C134.905 92.721 135.011 92.4343 135.175 92.1805C135.339 91.9267 135.557 91.712 135.813 91.5516L135.033 86.8904L137.745 85.725L138.753 92.323C138.994 92.7714 139.061 93.2926 138.944 93.7879C138.827 94.2832 138.532 94.7181 138.116 95.0102C137.7 95.3023 137.191 95.4313 136.687 95.3728C136.182 95.3144 135.716 95.0724 135.378 94.6929Z" fill="#FFB8B8"/>
<path d="M114.15 92.4904C114.387 92.3029 114.58 92.0656 114.715 91.7954C114.85 91.5251 114.925 91.2284 114.933 90.9262C114.942 90.6239 114.884 90.3235 114.764 90.046C114.644 89.7686 114.465 89.5209 114.239 89.3203L115.776 84.8522L113.294 83.2539L111.212 89.5943C110.901 89.9968 110.748 90.4996 110.782 91.0075C110.816 91.5154 111.035 91.9931 111.397 92.3501C111.759 92.707 112.24 92.9185 112.747 92.9444C113.254 92.9702 113.754 92.8087 114.15 92.4904Z" fill="#FFB8B8"/>
<path d="M127.038 59.5742C130.024 59.5742 132.444 57.1488 132.444 54.1569C132.444 51.1651 130.024 48.7397 127.038 48.7397C124.052 48.7397 121.632 51.1651 121.632 54.1569C121.632 57.1488 124.052 59.5742 127.038 59.5742Z" fill="#FFB8B8"/>
<path d="M113.983 89.1477C113.89 89.1476 113.798 89.1345 113.708 89.1088L112.133 88.6555C111.881 88.5826 111.668 88.413 111.541 88.1836C111.414 87.9543 111.382 87.6837 111.453 87.4311L114.705 75.9262L119.24 64.7713C119.691 63.6623 120.633 62.9351 121.699 62.8734C122.185 62.8495 122.668 62.9676 123.09 63.2134C123.511 63.4591 123.852 63.8219 124.071 64.2578C124.315 64.7244 124.449 65.2407 124.462 65.7673C124.476 66.2938 124.369 66.8164 124.15 67.295L118.995 78.59L114.897 88.5337C114.823 88.7152 114.696 88.8705 114.533 88.9798C114.37 89.0891 114.179 89.1475 113.983 89.1477Z" fill="#3F3D56"/>
<path d="M130.089 58.6998L127.086 58.7534C126.773 58.7595 126.463 58.6919 126.181 58.5561C125.899 58.4202 125.652 58.2198 125.462 57.971C125.271 57.7223 125.142 57.4321 125.084 57.124C125.026 56.8159 125.041 56.4984 125.127 56.1971C125.192 55.9794 125.24 55.7574 125.272 55.5326C125.305 55.2876 125.312 55.0395 125.291 54.793C125.272 54.5461 125.17 54.313 125.002 54.132C124.833 53.951 124.608 53.8327 124.364 53.7966C124.119 53.7605 123.87 53.8087 123.656 53.9333C123.443 54.0579 123.278 54.2515 123.188 54.4823C122.683 54.4895 121.607 54.3246 121.102 54.3318C120.03 51.577 122.367 47.9723 124.882 46.6184C127.447 45.2381 130.776 46.6423 131.759 49.5191C133.124 49.5437 134.232 50.892 134.408 52.4098C134.584 53.9277 133.961 55.5126 133.007 56.6759C132.054 57.8392 130.802 58.6871 130.089 58.6998Z" fill="#2F2E41"/>
<path d="M120.215 127.409C119.971 127.408 119.737 127.317 119.556 127.154C119.375 126.991 119.26 126.767 119.233 126.525L118.118 88.9778L132.159 89.9792L132.17 90.0697C135.343 116.683 134.258 125.896 134.247 125.986C134.239 126.122 134.203 126.255 134.142 126.377C134.08 126.498 133.994 126.606 133.89 126.693C133.785 126.78 133.663 126.844 133.532 126.882C133.402 126.92 133.264 126.93 133.129 126.913L130.027 126.987C129.791 126.96 129.573 126.85 129.412 126.676C129.251 126.503 129.158 126.277 129.148 126.04L126.249 98.8445C126.231 98.7739 126.189 98.7119 126.13 98.6693C126.071 98.6267 125.999 98.6063 125.927 98.6116C125.852 98.6114 125.779 98.6371 125.722 98.6845C125.664 98.7319 125.624 98.7979 125.61 98.8712L124.49 126.155C124.502 126.409 124.416 126.657 124.25 126.849C124.085 127.04 123.852 127.161 123.6 127.186L120.313 127.404C120.28 127.408 120.248 127.409 120.215 127.409Z" fill="#2F2E41"/>
<path d="M126.041 93.4643C125.957 93.4643 125.873 93.463 125.789 93.4604C121.752 93.3386 118.593 90.2779 117.721 89.3427C117.61 89.2234 117.53 89.0785 117.489 88.9208C117.447 88.7631 117.445 88.5976 117.483 88.439L119.812 78.5658L119.194 69.9822C119.097 68.7909 119.253 67.5926 119.652 66.466C120.05 65.3395 120.683 64.3103 121.507 63.4463C122.194 62.7193 123.028 62.1487 123.954 61.7733C124.881 61.3978 125.877 61.2263 126.875 61.2703C130.805 61.4582 133.905 64.9783 133.933 69.2838C133.977 75.9524 133.781 76.4106 133.717 76.5611C131.755 81.1481 132.826 87.5868 133.202 89.451C133.235 89.6173 133.226 89.7895 133.174 89.9511C133.123 90.1128 133.031 90.2585 132.907 90.3746C130.75 92.4256 128.441 93.4642 126.041 93.4643Z" fill="#3F3D56"/>
<path d="M136.181 90.9545C135.957 90.9543 135.74 90.878 135.564 90.738C135.389 90.598 135.267 90.4027 135.217 90.1838L132.814 79.6946L129.593 67.7055C129.456 67.1971 129.436 66.6639 129.537 66.1469C129.637 65.6299 129.854 65.1427 130.172 64.723C130.46 64.3296 130.856 64.0284 131.312 63.8557C131.768 63.6831 132.264 63.6465 132.74 63.7503C133.781 63.9876 134.59 64.8608 134.852 66.0292L137.483 77.7694L138.796 89.6667C138.824 89.9276 138.748 90.1891 138.585 90.3942C138.421 90.5994 138.184 90.7315 137.923 90.7617L136.295 90.9479C136.257 90.9523 136.219 90.9545 136.181 90.9545Z" fill="#3F3D56"/>
<path d="M6.78615 92.0858C7.07128 91.8899 7.31009 91.6338 7.48575 91.3355C7.66141 91.0371 7.76965 90.7038 7.80285 90.359C7.83604 90.0142 7.79339 89.6663 7.67789 89.3398C7.5624 89.0134 7.37686 88.7162 7.13435 88.4694L8.05162 67.9532L3.38173 68.4785L3.65303 88.5461C3.26615 88.9818 3.05221 89.5446 3.05176 90.1278C3.0513 90.711 3.26436 91.2741 3.65056 91.7104C4.03675 92.1467 4.56926 92.4259 5.14717 92.4951C5.72508 92.5643 6.30824 92.4186 6.78615 92.0858Z" fill="#FFB8B8"/>
<path d="M15.3057 126.815L17.9636 127.283L20.5904 117.233L17.108 116.542L15.3057 126.815Z" fill="#FFB8B8"/>
<path d="M22.6553 130.659L14.3021 129.187L14.8695 125.954L19.9953 126.857C20.4191 126.931 20.8241 127.089 21.1872 127.32C21.5502 127.552 21.8642 127.853 22.1112 128.206C22.3582 128.559 22.5334 128.957 22.6267 129.378C22.7201 129.799 22.7298 130.234 22.6553 130.659Z" fill="#2F2E41"/>
<path d="M8.01021 128.148H10.7088L11.9926 117.718L8.00977 117.718L8.01021 128.148Z" fill="#FFB8B8"/>
<path d="M15.9141 130.658L7.4328 130.659L7.43265 127.375L12.6371 127.375C13.5061 127.375 14.3396 127.721 14.9542 128.337C15.5687 128.952 15.914 129.788 15.9141 130.658Z" fill="#2F2E41"/>
<path d="M19.4907 125.292C19.4485 125.292 19.4065 125.289 19.3646 125.284L16.1884 125.023C16.0437 125.006 15.9041 124.959 15.7779 124.886C15.6517 124.814 15.5416 124.716 15.4542 124.599C15.3669 124.482 15.3042 124.349 15.2698 124.207C15.2355 124.065 15.2303 123.918 15.2545 123.774L18.1875 107.303L16.2057 96.8317C16.1895 96.7466 16.1432 96.6703 16.0753 96.6168C16.0073 96.5632 15.9224 96.5361 15.8361 96.5404C15.7498 96.5447 15.6679 96.5801 15.6056 96.6401C15.5433 96.7002 15.5048 96.7807 15.4971 96.867L13.0195 124.796C12.9923 125.076 12.8575 125.335 12.6436 125.518C12.4296 125.7 12.1533 125.792 11.8728 125.775L8.88037 125.663C8.61813 125.644 8.37176 125.53 8.18779 125.342C8.00382 125.154 7.89498 124.905 7.88182 124.642L7.68066 91.1677L23.1948 89.2246L24.2785 105.996L24.2742 106.014L20.5343 124.469C20.4773 124.704 20.3435 124.912 20.1543 125.061C19.9651 125.21 19.7314 125.292 19.4907 125.292Z" fill="#2F2E41"/>
<path d="M12.795 54.6585C15.7808 54.6585 18.2013 52.2331 18.2013 49.2413C18.2013 46.2495 15.7808 43.8241 12.795 43.8241C9.80915 43.8241 7.38867 46.2495 7.38867 49.2413C7.38867 52.2331 9.80915 54.6585 12.795 54.6585Z" fill="#FFB8B8"/>
<path d="M17.8889 93.6142C17.0434 93.6192 16.2141 93.3815 15.4992 92.9292C12.8803 91.2891 9.90585 91.9409 8.36586 92.4755C8.21304 92.5291 8.05011 92.5474 7.88924 92.529C7.72836 92.5107 7.57371 92.4561 7.43685 92.3694C7.30155 92.2843 7.18723 92.1696 7.10244 92.034C7.01764 91.8983 6.96458 91.7452 6.94722 91.5861L4.14678 66.5247C3.67749 62.3258 6.20176 58.3779 10.1489 57.1377C10.2971 57.0911 10.4479 57.0469 10.6012 57.0052C11.8295 56.6715 13.1159 56.6115 14.3698 56.8296C15.6237 57.0477 16.8147 57.5384 17.8589 58.2673C18.9226 59.0043 19.8122 59.9658 20.465 61.0844C21.1179 62.2029 21.5181 63.4512 21.6376 64.7415L23.9952 89.9708C24.0112 90.1341 23.9892 90.2989 23.9309 90.4523C23.8726 90.6057 23.7795 90.7434 23.659 90.8546C22.8326 91.6206 20.434 93.6139 17.8889 93.6142Z" fill="#ED2B33"/>
<path d="M9.36189 71.8988L3.0438 71.2028C2.86403 71.1829 2.69064 71.1245 2.53542 71.0315C2.38021 70.9385 2.24683 70.8131 2.14436 70.6638C2.04189 70.5145 1.97274 70.3448 1.94162 70.1663C1.9105 69.9877 1.91815 69.8046 1.96403 69.6293L3.57222 63.4875C3.67856 62.5665 4.14505 61.7253 4.86942 61.1484C5.59378 60.5715 6.51689 60.3059 7.43636 60.4099C8.35582 60.514 9.1966 60.9791 9.77433 61.7033C10.3521 62.4276 10.6196 63.3518 10.5183 64.2734L10.7571 70.5981C10.7638 70.7792 10.7316 70.9596 10.6625 71.127C10.5934 71.2945 10.4891 71.4451 10.3567 71.5685C10.2243 71.692 10.0669 71.7854 9.89524 71.8424C9.72357 71.8994 9.54166 71.9186 9.36189 71.8988V71.8988Z" fill="#ED2B33"/>
<path d="M23.9701 91.2071C24.2296 90.9782 24.4359 90.6952 24.5744 90.3778C24.7129 90.0604 24.7802 89.7164 24.7717 89.3702C24.7632 89.0239 24.679 88.6837 24.5251 88.3735C24.3712 88.0633 24.1512 87.7908 23.8808 87.575L22.3239 67.0977L17.748 68.1298L20.4341 88.0716C20.1024 88.5508 19.9578 89.1353 20.0274 89.7143C20.0971 90.2933 20.3764 90.8266 20.8122 91.2131C21.2481 91.5996 21.8103 91.8125 22.3923 91.8113C22.9743 91.8102 23.5357 91.5953 23.9701 91.2071Z" fill="#FFB8B8"/>
<path d="M15.994 70.6117C15.8615 70.4883 15.7572 70.3378 15.6881 70.1703C15.619 70.0028 15.5868 69.8224 15.5937 69.6413L15.8324 63.3166C15.7311 62.395 15.9987 61.4708 16.5764 60.7466C17.1541 60.0223 17.9949 59.5572 18.9144 59.4532C19.8338 59.3491 20.7569 59.6147 21.4813 60.1916C22.2057 60.7685 22.6722 61.6097 22.7785 62.5307L24.3867 68.6725C24.4326 68.8478 24.4402 69.031 24.4091 69.2095C24.378 69.388 24.3088 69.5577 24.2064 69.707C24.1039 69.8563 23.9705 69.9818 23.8153 70.0748C23.6601 70.1678 23.4867 70.2262 23.3069 70.246L16.9888 70.9421C16.8091 70.962 16.6271 70.9428 16.4554 70.8857C16.2837 70.8287 16.1263 70.7353 15.994 70.6117Z" fill="#ED2B33"/>
<path d="M12.4732 54.8626C12.3771 54.8625 12.2814 54.8513 12.1878 54.8293L12.1604 54.8226C7.40705 54.0939 6.35661 51.3352 6.12601 50.1831C5.88736 48.9902 6.15912 47.8388 6.7732 47.3917C6.4384 46.3324 6.49214 45.3932 6.93329 44.5989C7.70268 43.2138 9.37242 42.7454 9.59635 42.6881C10.9298 41.7024 12.5253 42.3604 12.8156 42.4938C15.3951 41.5376 16.381 42.3336 16.5593 42.5113C17.7123 42.7188 18.4151 43.1651 18.6484 43.8381C19.0867 45.1021 17.7007 46.6744 17.6415 46.7408L17.6108 46.7751L15.5461 46.8737C15.3501 46.883 15.1584 46.9336 14.9832 47.022C14.808 47.1104 14.6533 47.2347 14.5292 47.3869C14.4051 47.5391 14.3142 47.7157 14.2626 47.9053C14.211 48.0949 14.1997 48.2932 14.2295 48.4875C14.2854 48.7381 14.356 48.9853 14.4409 49.2276C14.7935 50.3318 15.0577 51.2751 14.717 51.6337C14.6398 51.7031 14.5446 51.7493 14.4424 51.7671C14.3402 51.7848 14.2351 51.7734 14.1391 51.7341C13.8163 51.6477 13.5971 51.6658 13.4879 51.788C13.3183 51.9776 13.3701 52.4574 13.6336 53.1391C13.7163 53.3546 13.7386 53.5888 13.698 53.8161C13.6574 54.0434 13.5555 54.2553 13.4034 54.4287C13.2889 54.5641 13.1464 54.673 12.9858 54.7479C12.8252 54.8228 12.6504 54.862 12.4732 54.8626Z" fill="#2F2E41"/>
<path d="M31.0365 131H0.220117C0.161738 131 0.105747 130.977 0.0644672 130.935C0.0231873 130.894 0 130.838 0 130.779C0 130.721 0.0231873 130.665 0.0644672 130.623C0.105747 130.582 0.161738 130.559 0.220117 130.559H31.0365C31.0949 130.559 31.1508 130.582 31.1921 130.623C31.2334 130.665 31.2566 130.721 31.2566 130.779C31.2566 130.838 31.2334 130.894 31.1921 130.935C31.1508 130.977 31.0949 131 31.0365 131Z" fill="#CCCCCC"/>
<path d="M138.453 131H107.637C107.579 131 107.523 130.977 107.481 130.935C107.44 130.894 107.417 130.838 107.417 130.779C107.417 130.721 107.44 130.665 107.481 130.623C107.523 130.582 107.579 130.559 107.637 130.559H138.453C138.512 130.559 138.568 130.582 138.609 130.623C138.65 130.665 138.674 130.721 138.674 130.779C138.674 130.838 138.65 130.894 138.609 130.935C138.568 130.977 138.512 131 138.453 131Z" fill="#CCCCCC"/>
<path d="M94.3669 93.5177H41.0986C39.0561 93.5154 37.0979 92.7013 35.6536 91.2541C34.2093 89.8069 33.3968 87.8448 33.3945 85.7981V7.71962C33.3968 5.67297 34.2093 3.7108 35.6536 2.26359C37.0979 0.816384 39.0561 0.0023228 41.0986 0H94.3669C96.4094 0.0023228 98.3677 0.816384 99.812 2.26359C101.256 3.7108 102.069 5.67297 102.071 7.71962V85.7981C102.069 87.8448 101.256 89.8069 99.812 91.2541C98.3677 92.7013 96.4094 93.5154 94.3669 93.5177Z" fill="white"/>
<path d="M86.0028 61.984H49.4634C45.7309 61.966 45.7154 56.2689 49.4636 56.2494L86.0028 56.2494C89.7327 56.2669 89.7529 61.9644 86.0028 61.984Z" fill="#CCCCCC"/>
<path d="M86.0028 16.0944H49.4634C45.7309 16.0764 45.7154 10.3794 49.4636 10.3599L86.0028 10.3599C89.7327 10.3774 89.7529 16.0749 86.0028 16.0944Z" fill="#CCCCCC"/>
<path d="M86.0028 72.5709H49.4634C45.7309 72.5529 45.7154 66.8558 49.4636 66.8363L86.0028 66.8363C89.7327 66.8538 89.7529 72.5513 86.0028 72.5709Z" fill="#CCCCCC"/>
<path d="M86.0028 83.1578H49.4634C45.7309 83.1398 45.7154 77.4427 49.4636 77.4232L86.0028 77.4232C89.7327 77.4407 89.7529 83.1382 86.0028 83.1578Z" fill="#CCCCCC"/>
<path d="M85.3418 49.3679H50.1231C49.1602 49.3668 48.2371 48.9831 47.5562 48.3008C46.8753 47.6186 46.4923 46.6935 46.4912 45.7287V25.9665C46.4923 25.0017 46.8753 24.0766 47.5562 23.3944C48.2371 22.7121 49.1602 22.3284 50.1231 22.3273H85.3418C86.3048 22.3284 87.2279 22.7121 87.9088 23.3944C88.5897 24.0766 88.9727 25.0017 88.9738 25.9665V45.7287C88.9727 46.6935 88.5897 47.6186 87.9088 48.3008C87.2279 48.9831 86.3048 49.3668 85.3418 49.3679Z" fill="#00B1D2"/>
<path d="M94.3669 93.5177H41.0986C39.0561 93.5154 37.0979 92.7013 35.6536 91.2541C34.2093 89.8069 33.3968 87.8448 33.3945 85.7981V7.71962C33.3968 5.67297 34.2093 3.7108 35.6536 2.26359C37.0979 0.816384 39.0561 0.0023228 41.0986 0H94.3669C96.4094 0.0023228 98.3677 0.816384 99.812 2.26359C101.256 3.7108 102.069 5.67297 102.071 7.71962V85.7981C102.069 87.8448 101.256 89.8069 99.812 91.2541C98.3677 92.7013 96.4094 93.5154 94.3669 93.5177ZM41.0986 1.32336C39.4062 1.32528 37.7837 1.99979 36.587 3.1989C35.3903 4.39802 34.7171 6.02382 34.7152 7.71962V85.7981C34.7171 87.4939 35.3903 89.1197 36.587 90.3188C37.7837 91.5179 39.4062 92.1924 41.0986 92.1944H94.3669C96.0593 92.1924 97.6818 91.5179 98.8785 90.3188C100.075 89.1197 100.748 87.4939 100.75 85.7981V7.71962C100.748 6.02382 100.075 4.39801 98.8785 3.1989C97.6818 1.99978 96.0593 1.32528 94.3669 1.32336H41.0986Z" fill="#E6E6E6"/>
</g>
<defs>
<clipPath id="clip0">
<rect width="139" height="131" fill="white"/>
</clipPath>
</defs>
</svg>
