<svg height="512pt" viewBox="0 -64 512 512" width="512pt" xmlns="http://www.w3.org/2000/svg"><path d="m495.050781 192.683594c-10.03125-17.472656-24.140625-32.429688-40.972656-43.488282v-141.589843c0-4.199219-3.402344-7.605469-7.601563-7.605469h-33.640624c-4.199219 0-7.605469 3.40625-7.605469 7.605469v156.332031c-49.148438 27.019531-89.386719 67.746094-115.78125 117.296875h-66.902344c-26.394531-49.550781-66.632813-90.277344-115.785156-117.296875v-39.675781c0-4.199219-3.402344-7.605469-7.601563-7.605469-4.203125 0-7.605468 3.40625-7.605468 7.605469v31.886719c-6.027344-2.867188-12.175782-5.527344-18.433594-7.984376v-132.957031h18.433594v78.636719c0 4.199219 3.402343 7.605469 7.605468 7.605469 4.199219 0 7.601563-3.40625 7.601563-7.605469v-86.238281c0-4.199219-3.402344-7.605469-7.601563-7.605469h-33.640625c-4.203125 0-7.605469 3.40625-7.605469 7.605469v141.589843c-16.828124 11.0625-30.9375 26.019532-40.96875 43.492188-11.085937 19.3125-16.945312 41.355469-16.945312 63.742188 0 70.703124 57.519531 128.222656 128.222656 128.222656 22.390625 0 44.429688-5.859375 63.742188-16.945313 17.472656-10.03125 32.433594-24.140625 43.492187-40.972656h41.082031c11.0625 16.832031 26.023438 30.941406 43.496094 40.972656 19.308594 11.089844 41.351563 16.949219 63.742188 16.949219 20.503906 0 40.085937-4.695312 58.199218-13.953125 3.738282-1.910156 5.222657-6.492187 3.3125-10.230469-1.914062-3.738281-6.492187-5.222656-10.234374-3.308594-15.949219 8.152344-33.203126 12.285157-51.277344 12.285157-38.507813 0-73.601563-19.058594-94.601563-51.167969 27.84375-71.886719 84.5625-128.605469 156.449219-156.449219 32.109375 20.988281 51.167969 56.082031 51.167969 94.601563 0 32.429687-13.960938 63.324218-38.300781 84.773437-3.152344 2.773438-3.453126 7.582031-.679688 10.730469 2.777344 3.152344 7.582031 3.457031 10.734375.679688 27.613281-24.332032 43.453125-59.390626 43.453125-96.183594 0-22.390625-5.859375-44.433594-16.949219-63.75zm-213.125 103.757812c-2.273437 4.953125-4.414062 9.984375-6.414062 15.085938h-39.023438c-2.003906-5.101563-4.144531-10.132813-6.417969-15.085938zm-153.703125 73.003906c-62.316406 0-113.015625-50.699218-113.015625-113.015624 0-38.515626 19.054688-73.609376 51.164063-94.601563 71.886718 27.84375 128.605468 84.566406 156.449218 156.453125-20.988281 32.109375-56.082031 51.164062-94.597656 51.164062zm292.21875-354.238281h18.429688v132.960938c-6.257813 2.457031-12.402344 5.117187-18.429688 7.980469zm0 0"/></svg>