<svg height="512pt" viewBox="0 -99 512 512" width="512pt" xmlns="http://www.w3.org/2000/svg"><path d="m406.566406 148.253906c-1.394531-22.082031-4.597656-51.492187-11.890625-79.011718-12.175781-45.945313-31.304687-69.242188-56.855469-69.242188-30.023437 0-43.433593 15.433594-54.210937 27.832031-8.621094 9.921875-14.851563 17.09375-27.609375 17.09375s-18.988281-7.171875-27.613281-17.09375c-10.777344-12.398437-24.191407-27.832031-54.214844-27.832031-3.882813 0-7.707031.578125-11.371094 1.722656-4.011719 1.253906-6.246093 5.519532-4.992187 9.527344s5.519531 6.242188 9.523437 4.992188c2.195313-.6875 4.496094-1.035157 6.839844-1.035157 23.089844 0 32.632813 10.980469 42.738281 22.601563 9.09375 10.464844 19.402344 22.324218 39.089844 22.324218s29.996094-11.859374 39.089844-22.324218c10.097656-11.621094 19.636718-22.601563 42.730468-22.601563 28.644532 0 44.339844 52.246094 50.882813 105.1875-19.132813 9.394531-68.574219 30.082031-132.703125 30.082031-64.191406 0-113.65625-20.714843-132.761719-30.097656 4.296875-34.773437 12.488281-68.105468 25.109375-87.546875 2.289063-3.519531 1.289063-8.230469-2.234375-10.519531-3.523437-2.285156-8.234375-1.28125-10.519531 2.238281-18.503906 28.503907-27.414062 79.308594-30.207031 123.710938-67.066407 16.824219-105.386719 43.671875-105.386719 74.039062 0 25.757813 27.679688 49.222657 77.941406 66.066407 47.675782 15.976562 110.910156 24.773437 178.058594 24.773437 66.472656 0 129.253906-8.648437 176.769531-24.351563 3.988281-1.316406 6.152344-5.617187 4.835938-9.605468-1.316407-3.988282-5.617188-6.152344-9.605469-4.835938-46.019531 15.210938-107.105469 23.585938-172 23.585938-65.546875 0-127.066406-8.519532-173.226562-23.988282-42.9375-14.386718-67.566407-33.214843-67.566407-51.644531 0-21.613281 33.996094-43.539062 89.421875-58.136719-.167968 5.234376-.25 10.320313-.25 15.199219 0 2.703125 1.4375 5.207031 3.777344 6.570313 2.527344 1.472656 62.863281 36.042968 147.84375 36.042968 84.972656 0 145.308594-34.574218 147.835938-36.042968 2.339843-1.363282 3.777343-3.867188 3.777343-6.570313 0-3.316406-.050781-8.5625-.273437-15.203125 55.441406 14.59375 89.453125 36.523438 89.453125 58.140625 0 14.023438-14.710938 28.683594-41.425781 41.277344-3.796876 1.792969-5.425782 6.324219-3.632813 10.121094 1.296875 2.75 4.03125 4.363281 6.882813 4.363281 1.085937 0 2.1875-.234375 3.238281-.726562 32.804687-15.46875 50.144531-34.5 50.144531-55.035157 0-30.375-38.339844-57.222656-105.433594-74.046875zm-150.566406 58.511719c-69.023438 0-122.117188-24.613281-136.390625-31.941406.125-12.300781.761719-25.324219 1.929687-38.414063 23.007813 10.636719 72.21875 29.273438 134.460938 29.273438 62.199219 0 111.394531-18.617188 134.414062-29.261719 1.203126 13.378906 1.835938 26.464844 1.964844 38.410156-14.25 7.335938-67.1875 31.933594-136.378906 31.933594zm0 0"/></svg>