<svg height="511pt" viewBox="-18 1 511 511.99899" width="511pt" xmlns="http://www.w3.org/2000/svg"><path d="m475.691406 263.015625c-1.617187-10.769531-7.328125-20.265625-16.085937-26.730469-7.0625-5.226562-15.433594-7.988281-24.207031-7.988281-12.894532 0-25.164063 6.183594-32.816407 16.539063l-1.566406 2.117187v-33.613281c0-4.195313-3.398437-7.597656-7.597656-7.597656-4.195313 0-7.597657 3.402343-7.597657 7.597656v283.464844h-175.710937v-338.710938c0-8.96875 7.296875-16.265625 16.265625-16.265625 8.972656 0 16.269531 7.296875 16.269531 16.265625v112.839844c0 4.195312 3.398438 7.597656 7.59375 7.597656 4.199219 0 7.597657-3.402344 7.597657-7.597656v-120.714844c0-8.96875 7.296874-16.265625 16.265624-16.265625 8.972657 0 16.269532 7.296875 16.269532 16.265625v120.71875c0 4.195312 3.398437 7.59375 7.597656 7.59375 4.195312 0 7.59375-3.398438 7.59375-7.59375v-128.597656c0-8.964844 7.296875-16.265625 16.269531-16.265625 8.96875 0 16.265625 7.296875 16.265625 16.265625v128.597656c0 4.195312 3.402344 7.59375 7.597656 7.59375 4.195313 0 7.597657-3.398438 7.597657-7.59375v-120.71875c0-8.96875 7.296875-16.265625 16.265625-16.265625s16.265625 7.296875 16.265625 16.265625v32.734375c0 4.195313 3.402343 7.59375 7.597656 7.59375s7.597656-3.398437 7.597656-7.59375v-32.734375c0-17.347656-14.113281-31.460938-31.460937-31.460938-7.867188 0-15.0625 2.910157-20.585938 7.699219-5.46875-9.308593-15.585937-15.574219-27.140625-15.574219-11.558593 0-21.671875 6.265626-27.140625 15.574219-3.675781-3.1875-8.089844-5.542969-12.957031-6.757812v-72.488281c0-8.417969-3.273437-16.320313-9.214844-22.246094-5.941406-5.941406-13.839843-9.214844-22.234375-9.214844-7.871094 0-15.070312 2.910156-20.59375 7.703125-5.46875-9.308594-15.582031-15.578125-27.140625-15.578125-7.867187 0-15.0625 2.910156-20.585937 7.703125-5.472656-9.308594-15.585938-15.578125-27.140625-15.578125-11.550781 0-21.664063 6.261719-27.132813 15.566406-5.710937-4.96875-12.9375-7.6875-20.597656-7.6875-17.347656 0-31.460938 14.113282-31.460938 31.460938v96.730468l-1.558593-2.113281c-7.65625-10.359375-19.921875-16.542969-32.820313-16.542969-8.773437 0-17.144531 2.761719-24.203125 7.984376-8.757812 6.472656-14.472656 15.964843-16.089843 26.738281-1.617188 10.769531 1.058593 21.527343 7.53125 30.285156l67.140624 90.839844v53.597656c0 4.199219 3.402344 7.597656 7.597657 7.597656 4.195312 0 7.597656-3.398437 7.597656-7.597656v-287.519531c0-8.96875 7.296875-16.265625 16.265625-16.265625 4.351562 0 8.4375 1.6875 11.503906 4.765625 3.070313 3.070312 4.765625 7.15625 4.765625 11.5v120.710937c0 1.3125.332031 2.546875.917969 3.621094 1.285156 2.371094 3.792969 3.980469 6.679688 3.980469 4.195312 0 7.597656-3.402344 7.597656-7.597656v-128.59375c0-8.96875 7.296875-16.265626 16.265625-16.265626s16.265625 7.296876 16.265625 16.265626v128.59375c0 4.195312 3.402344 7.597656 7.597656 7.597656s7.597656-3.402344 7.597656-7.597656v-120.71875c0-8.96875 7.296875-16.265626 16.265625-16.265626s16.265625 7.296876 16.265625 16.265626l.003906 88.222656c-13.707031 3.390625-23.902343 15.792968-23.902343 30.535156v227.828125h-104.089844v-28.671875c0-4.195312-3.402344-7.597656-7.597656-7.597656-4.195313 0-7.597657 3.402344-7.597657 7.597656v36.269531c0 4.195313 3.402344 7.597657 7.597657 7.597657h111.683593v103.285156c0 4.195312 3.402344 7.597656 7.597657 7.597656h190.90625c4.199219 0 7.597656-3.402344 7.597656-7.597656v-120.253906l67.144531-90.84375c6.472656-8.757813 9.148438-19.515626 7.53125-30.289063zm-454.980468-89.625c-4.0625-5.492187-5.742188-12.242187-4.726563-19 1.015625-6.753906 4.597656-12.710937 10.097656-16.773437 4.429688-3.277344 9.675781-5.007813 15.171875-5.007813 8.214844 0 15.722656 3.78125 20.597656 10.378906l13.78125 18.640625v86.070313zm229.570312-142.445313c4.339844 0 8.421875 1.691407 11.5 4.769532 3.066406 3.058594 4.757812 7.144531 4.757812 11.496094v72.472656c-8.320312 2.0625-15.339843 7.441406-19.578124 14.652344-3.671876-3.1875-8.085938-5.542969-12.949219-6.757813v-80.367187c.003906-8.96875 7.300781-16.265626 16.269531-16.265626zm205.660156 253.328126-54.925781 74.3125v-86.070313l13.785156-18.648437c4.871094-6.59375 12.378907-10.378907 20.597657-10.378907 5.496093 0 10.742187 1.734375 15.175781 5.011719 5.492187 4.058594 9.078125 10.015625 10.089843 16.773438 1.015626 6.757812-.660156 13.503906-4.722656 19zm0 0"/></svg>